<svg width="177" height="380" viewBox="0 0 177 380" fill="none" xmlns="http://www.w3.org/2000/svg">
    <g clip-path="url(#clip0)">
        <rect x="2" y="2" width="173" height="376" rx="19" stroke="white" stroke-width="4" />
        <rect x="9" y="24.5" width="159.5" height="343" rx="13.5" stroke="white" stroke-width="4" />
        <circle cx="50.5" cy="14" r="4" fill="white" />
        <rect x="79" y="12.5" width="19.5" height="3.5" rx="1.75" fill="white" />
        <path
            d="M61.3438 162.844V182.594H66.2812V187.531H71.2188V182.594H81.0938V162.844H61.3438ZM81.0938 182.594V187.531H86.0312V192.469H76.1562V197.406H61.3438V217.156H81.0938V197.406H95.9062V192.469H90.9688V187.531H100.844V182.594H105.781V187.531H110.719V182.594H115.656V162.844H95.9062V182.594H81.0938ZM110.719 187.531V192.469H115.656V187.531H110.719ZM110.719 192.469H105.781V197.406H110.719V192.469ZM110.719 197.406V202.344H115.656V197.406H110.719ZM110.719 202.344H105.781V197.406H100.844V202.344H88.5V217.156H93.4375V207.281H103.312V212.219H108.25V207.281H110.719V202.344ZM103.312 212.219H98.375V217.156H103.312V212.219ZM105.781 192.469V187.531H100.844V192.469H105.781ZM76.1562 192.469V187.531H71.2188V192.469H76.1562ZM66.2812 187.531H61.3438V192.469H66.2812V187.531ZM86.0312 162.844V172.719H83.5625V177.656H86.0312V180.125H90.9688V172.719H93.4375V167.781H90.9688V162.844H86.0312ZM66.2812 167.781H76.1562V177.656H66.2812V167.781ZM100.844 167.781H110.719V177.656H100.844V167.781ZM68.75 170.25V175.188H73.6875V170.25H68.75ZM103.312 170.25V175.188H108.25V170.25H103.312ZM66.2812 202.344H76.1562V212.219H66.2812V202.344ZM68.75 204.812V209.75H73.6875V204.812H68.75ZM110.719 212.219V217.156H115.656V212.219H110.719Z"
            fill="white" />
    </g>
    <defs>
        <clipPath id="clip0">
            <rect width="177" height="380" fill="white" />
        </clipPath>
    </defs>
</svg>
