<svg width="188" height="380" viewBox="0 0 188 380" fill="none" xmlns="http://www.w3.org/2000/svg">
    <g clip-path="url(#clip0)">
        <rect x="2" y="2" width="183.5" height="376" rx="23" stroke="white" stroke-width="4" />
        <path fill-rule="evenodd" clip-rule="evenodd"
            d="M49.5 12.5C49.5 10.2909 47.7091 8.5 45.5 8.5H28.5C17.4543 8.5 8.5 17.4543 8.5 28.5V350.5C8.5 361.546 17.4543 370.5 28.5 370.5H158.5C169.546 370.5 178.5 361.546 178.5 350.5V28.5C178.5 17.4543 169.546 8.5 158.5 8.5H141.5C139.291 8.5 137.5 10.2909 137.5 12.5V12.5V13.5C137.5 19.0228 133.023 23.5 127.5 23.5H59.5C53.9772 23.5 49.5 19.0228 49.5 13.5V12.5V12.5ZM28.5 12.5H44.5C45.0523 12.5 45.5 12.9477 45.5 13.5V13.5C45.5 21.232 51.768 27.5 59.5 27.5H127.5C135.232 27.5 141.5 21.232 141.5 13.5V13.5C141.5 12.9477 141.948 12.5 142.5 12.5H158.5C167.337 12.5 174.5 19.6634 174.5 28.5V350.5C174.5 359.337 167.337 366.5 158.5 366.5H28.5C19.6634 366.5 12.5 359.337 12.5 350.5V28.5C12.5 19.6634 19.6634 12.5 28.5 12.5Z"
            fill="white" />
        <rect x="83.5" y="13" width="20" height="4.5" rx="2.25" fill="white" />
        <circle cx="113" cy="15" r="3.5" fill="white" />
        <path
            d="M66.3438 162.844V182.594H71.2812V187.531H76.2188V182.594H86.0938V162.844H66.3438ZM86.0938 182.594V187.531H91.0312V192.469H81.1562V197.406H66.3438V217.156H86.0938V197.406H100.906V192.469H95.9688V187.531H105.844V182.594H110.781V187.531H115.719V182.594H120.656V162.844H100.906V182.594H86.0938ZM115.719 187.531V192.469H120.656V187.531H115.719ZM115.719 192.469H110.781V197.406H115.719V192.469ZM115.719 197.406V202.344H120.656V197.406H115.719ZM115.719 202.344H110.781V197.406H105.844V202.344H93.5V217.156H98.4375V207.281H108.312V212.219H113.25V207.281H115.719V202.344ZM108.312 212.219H103.375V217.156H108.312V212.219ZM110.781 192.469V187.531H105.844V192.469H110.781ZM81.1562 192.469V187.531H76.2188V192.469H81.1562ZM71.2812 187.531H66.3438V192.469H71.2812V187.531ZM91.0312 162.844V172.719H88.5625V177.656H91.0312V180.125H95.9688V172.719H98.4375V167.781H95.9688V162.844H91.0312ZM71.2812 167.781H81.1562V177.656H71.2812V167.781ZM105.844 167.781H115.719V177.656H105.844V167.781ZM73.75 170.25V175.188H78.6875V170.25H73.75ZM108.312 170.25V175.188H113.25V170.25H108.312ZM71.2812 202.344H81.1562V212.219H71.2812V202.344ZM73.75 204.812V209.75H78.6875V204.812H73.75ZM115.719 212.219V217.156H120.656V212.219H115.719Z"
            fill="white" />
    </g>
    <defs>
        <clipPath id="clip0">
            <rect width="187.5" height="380" rx="4" fill="white" />
        </clipPath>
    </defs>
</svg>
